# xmcd
#
# Track frame offsets:
#	150
#	14793
#	29337
#	46464
#	58696
#	74949
#	91274
#	110240
#	122830
#	138339
#	159991
#	179949
#	196999
#
# Disc length: 2837 seconds
#
# Revision: 0
# Processed by: cddbd v1.5.2PL0 Copyright (c) Steve Scherf et al.
# Submitted via: audiograbber 1.83.01
#
DISCID=cc0b130d
DTITLE=JonesTM - HC200820
DYEAR=2008
DGENRE=Country
TTITLE0=Heartland - Slow Down
TTITLE1=Randy Houser - Anything Goes
TTITLE2=Taylor Swift - Should've Said No
TTITLE3=Marcel - I Love This Song [Album Version]
TTITLE4=Zac Brown Band - Chicken Fried [Radio Edit]
TTITLE5=Crossin Dixon - I Love My Old Bird Dog (& I Love You)
TTITLE6=Day26 - Since You've Been Gone [Album Version]
TTITLE7=Chauncey Black - Everyday Is Your Birthday [LP]
TTITLE8=Al Green Feat. John Legend - Stay With Me (By The Sea) [Album Version]
TTITLE9=Joey Sommerville - Like You Mean It [Full Version]
TTITLE10=Kyle Wolverton - Miss Peaches [Album Version]
TTITLE11=Patrick Yandall - Laws Of Groovity
TTITLE12=Adele - Chasing Pavements
EXTD=
EXTT0=
EXTT1=
EXTT2=
EXTT3=
EXTT4=
EXTT5=
EXTT6=
EXTT7=
EXTT8=
EXTT9=
EXTT10=
EXTT11=
EXTT12=
PLAYORDER=
